<svg version="1.1" id="Layer_1" xmlns="http://www.w3.org/2000/svg" xmlns:xlink="http://www.w3.org/1999/xlink" x="0px" y="0px"
	 width="100%" viewBox="0 0 500 300" enable-background="new 0 0 500 300" xml:space="preserve">
<path fill="#FEFDFD" opacity="1.000000" stroke="none" 
	d="
M371.000000,301.000000 
	C247.371811,301.000000 124.243629,301.000000 1.057725,301.000000 
	C1.057725,201.069763 1.057725,101.139473 1.057725,1.104592 
	C167.544800,1.104592 334.089691,1.104592 500.817291,1.104592 
	C500.817291,100.999725 500.817291,200.999832 500.817291,301.000000 
	C457.806183,301.000000 414.653107,301.000000 371.000000,301.000000 
M192.399155,255.997284 
	C192.247299,256.314209 192.095428,256.631134 191.998779,257.000092 
	C191.998779,257.000092 191.951645,256.941071 191.269684,256.969879 
	C190.102325,258.588226 188.934982,260.206573 188.003937,261.890198 
	C188.003937,261.890198 187.776779,261.797089 187.115616,261.870300 
	C185.865005,263.686646 184.614395,265.502960 183.363770,267.319305 
	C183.624710,267.695984 183.885651,268.072662 184.146576,268.449310 
	C188.046463,267.421173 191.956909,266.431305 195.844589,265.358887 
	C235.200012,254.502686 274.365662,242.908432 314.586121,235.464478 
	C321.564026,234.173019 328.403473,232.133347 335.825714,230.442810 
	C336.155701,230.347382 336.485687,230.251953 337.534180,230.392853 
	C345.487152,228.002563 353.554199,225.927856 361.352417,223.109375 
	C366.425049,221.275970 371.106293,218.359665 375.991150,216.001465 
	C375.991150,216.001465 375.952850,215.930710 376.636353,216.001648 
	C378.021851,214.939850 379.407349,213.878052 380.875671,212.863525 
	C380.875671,212.863525 380.847870,212.772324 381.527313,212.754990 
	C383.740875,210.546341 385.954468,208.337677 388.023651,206.036301 
	C388.023651,206.036301 388.141388,206.161163 388.808960,206.037552 
	C389.510132,204.907043 390.211273,203.776520 391.033142,202.588608 
	C391.033142,202.588608 391.026398,202.455139 391.681458,202.183502 
	C392.380432,200.800354 393.079376,199.417206 394.575684,197.618195 
	C397.557770,197.384567 400.623718,197.514908 403.506561,196.850601 
	C412.998352,194.663361 422.632324,192.791473 431.804413,189.620483 
	C438.369751,187.350723 443.846771,182.242477 444.676880,174.935898 
	C446.157837,161.900528 444.652893,149.138351 438.674622,137.085358 
	C434.012421,127.685707 427.091705,123.090874 416.367920,123.949669 
	C397.332306,125.474098 380.899200,132.097061 367.905243,146.711853 
	C362.213257,143.919159 356.521271,141.126450 350.928070,137.542084 
	C352.490601,136.737823 354.000671,135.803375 355.623596,135.148911 
	C378.549744,125.903702 401.283966,116.070351 426.474091,114.460327 
	C433.529236,114.009415 436.330292,110.156311 435.899170,103.013847 
	C435.449097,95.557579 431.269257,92.706528 424.322296,95.431778 
	C413.972198,99.492012 403.681519,103.707642 393.416046,107.978516 
	C378.384674,114.232254 363.352722,120.699394 346.910614,121.898033 
	C340.415710,122.371513 334.443665,122.356796 330.916901,129.118332 
	C322.903046,125.480911 314.871338,121.882317 306.878174,118.199951 
	C238.144211,86.534790 169.418549,54.851570 100.684700,23.186178 
	C96.590561,21.300026 92.447227,19.520643 88.326790,17.691580 
	C87.985565,18.198606 87.644348,18.705631 87.303123,19.212658 
	C88.588692,20.312784 89.874252,21.412910 91.236427,22.794399 
	C91.236427,22.794399 91.518677,22.867674 91.671646,23.478645 
	C96.699791,27.722416 101.727936,31.966187 106.879257,36.117779 
	C106.879257,36.117779 106.800560,36.249977 106.864326,36.914627 
	C110.920952,40.230839 114.977585,43.547054 119.036644,46.972214 
	C119.036644,46.972214 119.144417,46.956051 119.334419,47.585781 
	C121.442848,49.162811 123.551270,50.739845 125.726112,52.333336 
	C125.726112,52.333336 125.745438,52.398972 125.855164,53.041431 
	C129.788635,56.147884 133.722107,59.254333 137.767105,62.295822 
	C137.767105,62.295822 137.717453,62.414951 137.898605,63.034786 
	C140.212936,64.739120 142.527283,66.443459 144.935486,68.012001 
	C144.935486,68.012001 144.870010,68.163414 144.974503,68.818100 
	C146.238419,69.633820 147.502350,70.449547 149.022614,71.174133 
	C149.022614,71.174133 148.774673,71.289093 148.843933,71.953812 
	C154.130264,76.067383 159.416611,80.180954 164.795990,84.264427 
	C164.795990,84.264427 164.761017,84.355759 164.864456,85.002350 
	C168.256729,87.616646 171.648987,90.230934 175.045670,92.966606 
	C175.045670,92.966606 175.165283,92.945503 175.357986,93.573265 
	C177.164368,94.799858 178.970749,96.026451 181.023941,97.152435 
	C181.023941,97.152435 180.786713,97.276367 180.874344,97.935249 
	C184.170944,100.378929 187.467545,102.822609 191.019852,105.168495 
	C191.019852,105.168495 190.774933,105.292259 190.827042,105.942703 
	C192.227020,106.917969 193.627014,107.893234 195.037781,108.979500 
	C195.037781,108.979500 195.147018,108.956924 195.369019,109.567131 
	C196.645554,110.400581 197.922073,111.234039 199.263443,112.163780 
	C199.263443,112.163780 199.378708,112.177460 199.596909,112.864899 
	C204.734558,116.880486 209.872208,120.896080 215.014008,124.991623 
	C215.014008,124.991623 215.093582,124.982758 215.302628,125.612419 
	C219.863510,129.061798 224.424393,132.511169 228.990768,136.016205 
	C228.990768,136.016205 229.046280,136.009430 229.235229,136.643539 
	C231.866165,138.445740 234.497101,140.247925 237.654999,142.373428 
	C238.647491,143.315552 239.639969,144.257660 240.819290,145.894028 
	C240.152390,146.692703 239.647705,147.813705 238.794861,148.242935 
	C217.097748,159.162766 211.973282,178.569229 212.290527,200.523254 
	C212.388260,207.286194 216.161926,210.967453 222.830780,211.782684 
	C230.087463,212.669739 237.410660,213.001877 244.693619,213.694321 
	C246.056213,213.823883 247.365753,214.511551 248.122467,215.301514 
	C247.720352,215.829346 247.318253,216.357193 246.247147,217.024521 
	C243.915085,218.885849 241.680328,220.887390 239.234634,222.585037 
	C226.560669,231.382477 213.832794,240.102295 200.447281,249.014694 
	C199.190552,250.229233 197.933823,251.443756 196.914185,253.021179 
	C196.914185,253.021179 196.662659,252.666122 195.984543,252.674667 
	C194.970627,253.770035 193.956711,254.865402 193.002640,255.994110 
	C193.002640,255.994110 192.956024,255.943466 192.399155,255.997284 
M112.312386,225.268768 
	C104.366730,243.912582 106.806129,260.251617 123.713242,273.427277 
	C120.143509,275.941284 116.975754,277.971252 114.074402,280.329041 
	C113.113693,281.109741 112.838882,282.734497 112.250473,283.973328 
	C113.417412,284.269836 114.584358,284.566345 116.560638,284.974457 
	C126.538506,282.900726 136.565033,281.029877 146.470428,278.653992 
	C150.468506,277.695038 154.201645,275.631409 158.758362,273.891602 
	C162.325943,271.241943 166.427185,269.077271 169.359818,265.850525 
	C177.741898,256.627838 178.602219,245.404785 176.479691,233.721848 
	C176.187408,232.112991 175.072113,230.653687 174.717422,228.572113 
	C175.953949,226.143539 176.859787,223.464691 178.478729,221.325531 
	C193.018692,202.113449 203.880188,181.186249 209.097580,157.496445 
	C211.609970,146.088852 206.666840,140.604553 196.179657,143.762527 
	C194.864441,144.158585 193.400543,146.224243 193.170456,147.698166 
	C191.967377,155.405106 191.715790,163.301071 190.000549,170.874771 
	C188.625519,176.946289 185.632782,182.651459 182.968445,189.523972 
	C181.364014,187.582047 180.830261,187.002747 180.370438,186.369736 
	C169.118805,170.880371 157.925385,155.348419 146.606308,139.908554 
	C141.749802,133.284012 140.243958,133.035431 132.954086,136.596069 
	C126.646385,139.676987 125.384872,145.790955 130.328262,150.801636 
	C135.701218,156.247742 141.381805,161.390198 146.922180,166.671387 
	C149.568329,169.193741 152.200500,171.730789 155.400116,174.799286 
	C131.730667,178.598572 109.407455,182.181763 86.425896,185.870621 
	C86.969238,184.299026 87.104706,183.665710 87.392151,183.111160 
	C93.821724,170.706604 100.523422,158.433899 106.589859,145.854706 
	C109.140831,140.565094 111.137779,134.743286 111.967003,128.959869 
	C112.868523,122.672264 108.816406,118.427338 103.078987,117.220360 
	C99.748199,126.988472 96.953728,136.917206 92.980591,146.349457 
	C88.986450,155.831573 83.819107,164.819534 79.165886,174.024033 
	C78.636467,173.914627 78.107048,173.805222 77.577637,173.695816 
	C77.251884,171.998581 76.751801,170.313782 76.629745,168.602020 
	C76.013977,159.966354 75.893867,151.274078 74.822563,142.698761 
	C73.921913,135.489426 72.362083,128.294235 70.324234,121.317650 
	C68.808022,116.126892 65.420036,111.967728 59.261803,110.591148 
	C59.178802,112.118126 58.958279,113.411430 59.062481,114.678024 
	C60.359188,130.439438 61.416252,146.228271 63.129982,161.945160 
	C64.390869,173.508972 66.249405,185.028107 68.343193,196.475388 
	C70.914970,210.536011 74.021866,224.498474 76.870911,238.508759 
	C78.122162,244.661850 85.897697,248.948257 92.840904,246.850220 
	C92.455566,244.836700 92.154465,242.730484 91.642448,240.676834 
	C88.910042,229.717300 86.015060,218.796890 83.416847,207.806091 
	C82.491005,203.889633 81.718132,199.781555 88.218918,199.632248 
	C91.471420,199.557556 94.660164,197.992584 97.936958,197.480972 
	C119.127441,194.172363 140.319733,190.867691 161.547241,187.810165 
	C166.110428,187.152893 176.006302,197.633163 174.234543,201.662903 
	C172.292557,206.079819 168.274170,209.583817 164.555237,213.010483 
	C163.308533,211.941589 162.151047,210.740845 160.799850,209.826355 
	C154.507111,205.567413 147.400757,205.553635 140.166077,205.780121 
	C128.634399,206.141129 117.304359,213.950470 112.312386,225.268768 
z"/>
<path fill="#E80304" opacity="1.000000" stroke="none" 
	d="
M201.123718,248.849182 
	C213.832794,240.102295 226.560669,231.382477 239.234634,222.585037 
	C241.680328,220.887390 243.915085,218.885849 246.883270,217.097488 
	C249.570602,216.748093 251.613449,216.278854 253.674500,215.911819 
	C261.081909,214.592667 268.542145,213.521027 275.884888,211.910843 
	C279.044739,211.217911 281.915497,208.528839 285.006866,208.357452 
	C289.828339,208.090195 291.478180,204.649979 293.946472,201.791397 
	C294.530975,201.114471 295.304413,200.600708 296.049072,200.145782 
	C296.192322,200.327316 296.277374,200.374969 296.362457,200.422623 
	C296.245667,200.278656 296.128845,200.134674 296.005402,199.530884 
	C295.917908,197.835770 295.837067,196.600479 295.694916,195.065323 
	C295.779877,194.178146 295.926117,193.590836 296.449463,192.992020 
	C300.098724,190.604004 301.244446,179.028564 298.430634,176.340240 
	C298.126434,176.049606 297.490601,176.106049 296.925446,175.624054 
	C296.752747,174.220810 296.663177,173.195023 296.887360,171.995911 
	C296.665253,170.215454 296.129425,168.608307 295.409119,166.648376 
	C294.987732,165.261124 294.750793,164.226685 294.847290,163.009125 
	C296.457550,160.201523 295.519470,158.689896 292.554077,157.833023 
	C292.001190,156.497040 291.688446,155.404282 291.730286,154.116455 
	C291.392242,151.450562 291.112762,148.752197 289.907471,146.563736 
	C288.220001,143.499771 285.842804,140.815674 283.596558,137.744690 
	C283.271973,141.323822 281.195129,139.104019 279.144684,138.693893 
	C275.128723,137.890610 271.027618,137.240219 266.943665,137.114609 
	C261.123413,136.935608 255.284698,137.230957 249.459305,137.461395 
	C248.432983,137.501999 247.433304,138.216583 246.428665,138.616989 
	C246.872101,139.798965 247.184875,140.632690 248.135376,143.166306 
	C243.700668,141.283737 240.504608,139.894150 237.280380,138.573380 
	C235.856110,137.989929 234.374664,137.546066 232.585205,136.985458 
	C231.182922,136.624527 230.114609,136.316971 229.046280,136.009430 
	C229.046280,136.009430 228.990768,136.016205 228.994308,135.641769 
	C224.363098,131.839142 219.728333,128.410950 215.093582,124.982758 
	C215.093582,124.982758 215.014008,124.991623 215.016098,124.606323 
	C209.805023,120.206512 204.591873,116.191986 199.378708,112.177460 
	C199.378708,112.177460 199.263443,112.163780 199.163818,111.755692 
	C197.758484,110.550705 196.452744,109.753815 195.147018,108.956924 
	C195.147018,108.956924 195.037781,108.979500 195.022858,108.576797 
	C193.596939,107.213486 192.185928,106.252876 190.774933,105.292259 
	C190.774933,105.292259 191.019852,105.168495 190.862732,104.871994 
	C187.399307,102.142456 184.093002,99.709412 180.786713,97.276367 
	C180.786713,97.276367 181.023941,97.152435 180.866226,96.859161 
	C178.860764,95.359093 177.013031,94.152298 175.165283,92.945503 
	C175.165283,92.945503 175.045670,92.966606 175.034363,92.564781 
	C171.602371,89.560555 168.181686,86.958160 164.761017,84.355759 
	C164.761017,84.355759 164.795990,84.264427 164.734116,83.930405 
	C159.373047,79.493958 154.073868,75.391525 148.774673,71.289093 
	C148.774673,71.289093 149.022614,71.174133 148.864563,70.873550 
	C147.427689,69.769775 146.148849,68.966591 144.870010,68.163414 
	C144.870010,68.163414 144.935486,68.012001 144.915924,67.725433 
	C142.503403,65.764229 140.110428,64.089584 137.717453,62.414951 
	C137.717453,62.414951 137.767105,62.295822 137.718216,61.972458 
	C133.694702,58.565716 129.720062,55.482342 125.745438,52.398972 
	C125.745438,52.398972 125.726112,52.333336 125.688049,51.980053 
	C123.481468,50.069862 121.312943,48.512959 119.144417,46.956051 
	C119.144417,46.956051 119.036644,46.972214 119.033493,46.576355 
	C114.953751,42.870327 110.877151,39.560150 106.800560,36.249977 
	C106.800560,36.249977 106.879257,36.117779 106.871841,35.818596 
	C101.749168,31.302168 96.633919,27.084923 91.518677,22.867676 
	C91.518677,22.867674 91.236427,22.794399 91.283936,22.353397 
	C92.021896,21.709936 92.885590,21.132330 93.377632,21.359545 
	C107.947449,28.087618 122.470619,34.916553 137.021637,41.685528 
	C155.208908,50.146057 173.394348,58.611031 191.616638,66.995697 
	C217.496353,78.903801 243.421158,90.713844 269.303162,102.617012 
	C286.623322,110.582558 303.932159,118.574402 321.170807,126.713837 
	C324.020325,128.059250 326.482666,130.224609 328.936707,132.303741 
	C320.967316,135.796341 313.127197,138.865799 305.441864,142.283447 
	C303.400909,143.191071 300.118164,145.661301 300.376495,146.561005 
	C301.126617,149.173447 302.975342,151.924377 305.189026,153.508942 
	C306.762268,154.635071 309.903137,154.683945 311.853058,153.934845 
	C315.683716,152.463287 318.986908,149.587631 322.835236,148.198624 
	C337.040527,143.071426 336.624268,143.404114 335.313385,157.119568 
	C333.770050,173.266983 330.559814,189.248260 328.455322,205.351608 
	C327.324463,214.005142 325.765472,223.071671 334.044067,229.587814 
	C311.038361,234.793976 288.347290,239.621597 265.786194,244.994965 
	C249.310394,248.919022 232.993011,253.514191 216.629547,257.901733 
	C206.902283,260.509888 197.222565,263.295441 186.960678,266.157654 
	C187.319290,264.241547 187.548035,263.019318 187.776794,261.797089 
	C187.776779,261.797089 188.003937,261.890198 188.218201,261.789490 
	C189.605530,260.106232 190.778595,258.523651 191.951645,256.941071 
	C191.951645,256.941071 191.998779,257.000092 192.263977,256.968414 
	C192.671432,256.605652 192.813721,256.274536 192.956024,255.943451 
	C192.956024,255.943466 193.002640,255.994110 193.309479,255.953522 
	C194.631760,254.830673 195.647217,253.748398 196.662659,252.666122 
	C196.662659,252.666122 196.914185,253.021179 197.146744,252.844376 
	C198.627441,251.394775 199.875580,250.121979 201.123718,248.849182 
M288.566559,140.295166 
	C288.294800,140.010391 288.023041,139.725616 287.751282,139.440842 
	C287.633392,139.553513 287.406799,139.757965 287.413269,139.765625 
	C287.666931,140.065994 287.941833,140.348419 288.566559,140.295166 
z"/>
<path fill="#2C2728" opacity="1.000000" stroke="none" 
	d="
M165.160614,213.485626 
	C168.274170,209.583817 172.292557,206.079819 174.234543,201.662903 
	C176.006302,197.633163 166.110428,187.152893 161.547241,187.810165 
	C140.319733,190.867691 119.127441,194.172363 97.936958,197.480972 
	C94.660164,197.992584 91.471420,199.557556 88.218918,199.632248 
	C81.718132,199.781555 82.491005,203.889633 83.416847,207.806091 
	C86.015060,218.796890 88.910042,229.717300 91.642448,240.676834 
	C92.154465,242.730484 92.455566,244.836700 92.840904,246.850220 
	C85.897697,248.948257 78.122162,244.661850 76.870911,238.508759 
	C74.021866,224.498474 70.914970,210.536011 68.343193,196.475388 
	C66.249405,185.028107 64.390869,173.508972 63.129982,161.945160 
	C61.416252,146.228271 60.359188,130.439438 59.062481,114.678024 
	C58.958279,113.411430 59.178802,112.118126 59.261803,110.591148 
	C65.420036,111.967728 68.808022,116.126892 70.324234,121.317650 
	C72.362083,128.294235 73.921913,135.489426 74.822563,142.698761 
	C75.893867,151.274078 76.013977,159.966354 76.629745,168.602020 
	C76.751801,170.313782 77.251884,171.998581 77.577637,173.695816 
	C78.107048,173.805222 78.636467,173.914627 79.165886,174.024033 
	C83.819107,164.819534 88.986450,155.831573 92.980591,146.349457 
	C96.953728,136.917206 99.748199,126.988472 103.078987,117.220360 
	C108.816406,118.427338 112.868523,122.672264 111.967003,128.959869 
	C111.137779,134.743286 109.140831,140.565094 106.589859,145.854706 
	C100.523422,158.433899 93.821724,170.706604 87.392151,183.111160 
	C87.104706,183.665710 86.969238,184.299026 86.425896,185.870621 
	C109.407455,182.181763 131.730667,178.598572 155.400116,174.799286 
	C152.200500,171.730789 149.568329,169.193741 146.922180,166.671387 
	C141.381805,161.390198 135.701218,156.247742 130.328262,150.801636 
	C125.384872,145.790955 126.646385,139.676987 132.954086,136.596069 
	C140.243958,133.035431 141.749802,133.284012 146.606308,139.908554 
	C157.925385,155.348419 169.118805,170.880371 180.370438,186.369736 
	C180.830261,187.002747 181.364014,187.582047 182.968445,189.523972 
	C185.632782,182.651459 188.625519,176.946289 190.000549,170.874771 
	C191.715790,163.301071 191.967377,155.405106 193.170456,147.698166 
	C193.400543,146.224243 194.864441,144.158585 196.179657,143.762527 
	C206.666840,140.604553 211.609970,146.088852 209.097580,157.496445 
	C203.880188,181.186249 193.018692,202.113449 178.478729,221.325531 
	C176.859787,223.464691 175.953949,226.143539 174.272980,228.748169 
	C172.608658,230.167603 171.388779,231.410965 170.103485,232.688873 
	C170.038055,232.723404 169.971878,232.855728 169.623779,232.923737 
	C162.529449,241.021805 155.783218,249.051865 148.722519,257.109619 
	C147.862274,257.725891 147.316528,258.314392 146.393677,258.948700 
	C141.017593,259.657257 136.018646,260.320007 130.806488,260.802185 
	C126.606415,260.982483 128.682159,258.537781 129.192123,256.816528 
	C130.385788,255.512604 131.283615,254.346664 132.091339,253.093109 
	C132.001221,253.005493 132.181915,253.183228 132.495422,253.067352 
	C133.938004,251.660873 135.067062,250.370270 136.464478,248.957001 
	C137.271606,248.270828 137.810394,247.707321 138.608978,247.006027 
	C139.379242,246.108658 139.889725,245.349075 140.444519,244.532928 
	C140.488831,244.476379 140.583740,244.368484 140.869659,244.311798 
	C141.891449,243.383163 142.627319,242.511200 143.440918,241.580551 
	C143.518661,241.521851 143.626999,241.359955 143.930511,241.297119 
	C145.273651,239.873505 146.313293,238.512741 147.574249,237.052155 
	C148.039108,236.726685 148.211884,236.455917 148.608032,235.984497 
	C151.492783,232.871155 154.337921,230.095078 156.611877,226.911072 
	C159.690887,222.599777 162.331772,217.975586 165.160614,213.485626 
z"/>
<path fill="#2A2324" opacity="1.000000" stroke="none" 
	d="
M334.414459,229.443192 
	C325.765472,223.071671 327.324463,214.005142 328.455322,205.351608 
	C330.559814,189.248260 333.770050,173.266983 335.313385,157.119568 
	C336.624268,143.404114 337.040527,143.071426 322.835236,148.198624 
	C318.986908,149.587631 315.683716,152.463287 311.853058,153.934845 
	C309.903137,154.683945 306.762268,154.635071 305.189026,153.508942 
	C302.975342,151.924377 301.126617,149.173447 300.376495,146.561005 
	C300.118164,145.661301 303.400909,143.191071 305.441864,142.283447 
	C313.127197,138.865799 320.967316,135.796341 329.212036,132.260513 
	C330.286926,131.091934 330.899292,130.259323 331.511627,129.426697 
	C334.443665,122.356796 340.415710,122.371513 346.910614,121.898033 
	C363.352722,120.699394 378.384674,114.232254 393.416046,107.978516 
	C403.681519,103.707642 413.972198,99.492012 424.322296,95.431778 
	C431.269257,92.706528 435.449097,95.557579 435.899170,103.013847 
	C436.330292,110.156311 433.529236,114.009415 426.474091,114.460327 
	C401.283966,116.070351 378.549744,125.903702 355.623596,135.148911 
	C354.000671,135.803375 352.490601,136.737823 350.466797,137.812500 
	C345.667847,137.555664 347.110352,140.822998 347.172394,142.754181 
	C347.853241,163.944183 345.968811,184.895798 341.707916,205.654572 
	C340.145203,213.267990 338.751709,220.916122 337.186768,228.732422 
	C337.000183,229.329773 336.907928,229.743134 336.815643,230.156525 
	C336.485687,230.251953 336.155701,230.347382 335.555847,230.245880 
	C334.995483,229.847015 334.704956,229.645096 334.414459,229.443192 
z"/>
<path fill="#2B2626" opacity="1.000000" stroke="none" 
	d="
M368.410400,147.060471 
	C380.899200,132.097061 397.332306,125.474098 416.367920,123.949669 
	C427.091705,123.090874 434.012421,127.685707 438.674622,137.085358 
	C444.652893,149.138351 446.157837,161.900528 444.676880,174.935898 
	C443.846771,182.242477 438.369751,187.350723 431.804413,189.620483 
	C422.632324,192.791473 412.998352,194.663361 403.506561,196.850601 
	C400.623718,197.514908 397.557770,197.384567 394.050232,197.684799 
	C393.187195,197.680237 392.849579,197.609085 392.033203,197.400330 
	C384.465912,196.600784 377.340485,196.197021 370.301086,195.191360 
	C365.101196,194.448471 361.017944,191.337418 360.924500,185.809738 
	C360.808655,178.954514 361.161621,171.962158 362.457245,165.250076 
	C363.656891,159.035400 366.366028,153.112091 368.410400,147.060471 
M380.128876,155.174713 
	C374.368988,160.044373 370.630249,174.939072 373.806366,181.217194 
	C374.479553,182.547882 376.059570,184.186905 377.350372,184.307495 
	C383.487762,184.880890 389.669586,184.978561 396.694885,185.523392 
	C406.982880,185.791458 416.776611,183.724075 426.005890,179.166901 
	C430.507141,176.944290 432.559937,173.180771 432.149414,168.194031 
	C431.387878,158.943390 428.674377,150.335144 423.368256,142.641922 
	C421.146179,139.420151 418.193604,137.799057 414.102112,137.899933 
	C405.277191,138.117523 396.807404,140.013672 389.539856,144.876633 
	C385.949707,147.278931 383.672577,151.643478 380.128876,155.174713 
z"/>
<path fill="#2B2324" opacity="1.000000" stroke="none" 
	d="
M291.375702,154.311508 
	C291.688446,155.404282 292.001190,156.497040 292.584656,158.177795 
	C293.408173,160.241257 293.960999,161.716751 294.513824,163.192230 
	C294.750793,164.226685 294.987732,165.261124 295.299744,166.970978 
	C295.774445,169.153992 296.174042,170.661606 296.573639,172.169220 
	C296.663177,173.195023 296.752747,174.220810 296.915710,176.087570 
	C296.683563,182.286865 296.377960,187.645203 296.072357,193.003540 
	C295.926117,193.590836 295.779877,194.178146 295.376404,195.219666 
	C293.475311,197.502029 292.000946,199.525375 290.158447,201.124680 
	C281.947418,208.251999 271.770294,210.285782 261.469421,212.049271 
	C257.173706,212.784683 252.954025,213.964111 248.699783,214.941650 
	C247.365753,214.511551 246.056213,213.823883 244.693619,213.694321 
	C237.410660,213.001877 230.087463,212.669739 222.830780,211.782684 
	C216.161926,210.967453 212.388260,207.286194 212.290527,200.523254 
	C211.973282,178.569229 217.097748,159.162766 238.794861,148.242935 
	C239.647705,147.813705 240.152390,146.692703 241.175568,145.658676 
	C248.564987,143.954422 255.625153,142.602737 262.625000,140.989349 
	C273.317596,138.524811 282.361023,140.569977 288.956207,150.359100 
	C289.627441,151.565430 290.252258,152.435287 290.901611,153.498962 
	C290.998657,153.955246 291.148529,154.161484 291.375702,154.311508 
M260.806610,199.982071 
	C267.911346,201.164551 273.984192,198.135086 279.552246,194.545227 
	C281.805176,193.092758 283.873688,189.634842 284.040771,186.965271 
	C284.749512,175.642395 281.356384,165.298416 273.985077,156.629639 
	C270.219879,152.201706 257.182220,152.937241 252.298737,157.000702 
	C251.328018,157.025986 250.279053,156.817078 249.398209,157.111359 
	C233.938766,162.276459 223.246567,179.580536 225.866928,195.596588 
	C226.140182,197.266739 228.228439,199.809708 229.648758,199.932465 
	C238.855042,200.728119 248.107681,201.040298 257.351105,201.279968 
	C258.386566,201.306824 259.459595,199.884857 260.806610,199.982071 
z"/>
<path fill="#E50506" opacity="1.000000" stroke="none" 
	d="
M368.157837,146.886169 
	C366.366028,153.112091 363.656891,159.035400 362.457245,165.250076 
	C361.161621,171.962158 360.808655,178.954514 360.924500,185.809738 
	C361.017944,191.337418 365.101196,194.448471 370.301086,195.191360 
	C377.340485,196.197021 384.465912,196.600784 391.867767,197.718231 
	C391.796204,199.600830 391.411285,201.027985 391.026367,202.455139 
	C391.026398,202.455139 391.033142,202.588608 390.630981,202.723877 
	C389.533020,203.959824 388.837189,205.060486 388.141357,206.161163 
	C388.141388,206.161163 388.023651,206.036301 387.750366,206.099182 
	C385.267334,208.365479 383.057587,210.568893 380.847870,212.772324 
	C380.847870,212.772324 380.875671,212.863525 380.490784,212.794312 
	C378.721527,213.793640 377.337189,214.862167 375.952850,215.930695 
	C375.952850,215.930710 375.991150,216.001465 375.599731,215.897858 
	C373.691986,216.457321 372.218414,217.251312 370.652527,217.762466 
	C359.539276,221.390213 348.407135,224.960098 337.281036,228.548431 
	C338.751709,220.916122 340.145203,213.267990 341.707916,205.654572 
	C345.968811,184.895798 347.853241,163.944183 347.172394,142.754181 
	C347.110352,140.822998 345.667847,137.555664 350.417419,138.208313 
	C356.521271,141.126450 362.213257,143.919159 368.157837,146.886169 
z"/>
<path fill="#C7292B" opacity="1.000000" stroke="none" 
	d="
M331.214264,129.272522 
	C330.899292,130.259323 330.286926,131.091934 329.399261,131.967804 
	C326.482666,130.224609 324.020325,128.059250 321.170807,126.713837 
	C303.932159,118.574402 286.623322,110.582558 269.303162,102.617012 
	C243.421158,90.713844 217.496353,78.903801 191.616638,66.995697 
	C173.394348,58.611031 155.208908,50.146057 137.021637,41.685528 
	C122.470619,34.916553 107.947449,28.087618 93.377632,21.359545 
	C92.885590,21.132330 92.021896,21.709936 91.245628,22.212719 
	C89.874252,21.412910 88.588692,20.312784 87.303123,19.212658 
	C87.644348,18.705631 87.985565,18.198606 88.326790,17.691580 
	C92.447227,19.520643 96.590561,21.300026 100.684700,23.186178 
	C169.418549,54.851570 238.144211,86.534790 306.878174,118.199951 
	C314.871338,121.882317 322.903046,125.480911 331.214264,129.272522 
z"/>
<path fill="#E80C0D" opacity="1.000000" stroke="none" 
	d="
M149.037003,257.081909 
	C155.783218,249.051865 162.529449,241.021805 169.631790,233.331970 
	C170.150543,234.992142 170.313202,236.312088 170.557312,238.293076 
	C173.550323,234.538040 173.550323,234.538040 170.168900,232.654327 
	C171.388779,231.410965 172.608658,230.167603 174.083191,229.024689 
	C175.072113,230.653687 176.187408,232.112991 176.479691,233.721848 
	C178.602219,245.404785 177.741898,256.627838 169.359818,265.850525 
	C166.427185,269.077271 162.325943,271.241943 158.014709,273.918243 
	C155.248932,274.383026 153.226791,274.821167 151.148361,275.188660 
	C151.092056,275.118042 150.978806,274.977325 151.046829,274.632751 
	C152.736572,273.241730 154.281723,272.044373 155.993637,271.175720 
	C162.411316,267.919312 169.008408,264.675415 171.275330,257.178101 
	C172.803528,252.123962 173.369370,246.778839 174.306198,241.875488 
	C168.334030,239.738922 165.590332,242.011063 162.680527,245.668137 
	C157.487198,252.195145 151.603851,258.173157 146.354355,263.997559 
	C140.444778,263.997559 134.721786,263.997559 128.665909,263.996216 
	C127.889198,263.995789 127.445366,263.996674 126.758118,263.828186 
	C126.349907,263.102997 126.185097,262.547211 126.407028,261.992249 
	C128.202408,261.656311 129.611053,261.319550 131.019684,260.982788 
	C136.018646,260.320007 141.017593,259.657257 146.734222,258.957214 
	C147.980255,258.307251 148.508621,257.694580 149.037003,257.081909 
z"/>
<path fill="#E80C0D" opacity="1.000000" stroke="none" 
	d="
M115.751297,284.862854 
	C114.584358,284.566345 113.417412,284.269836 112.250473,283.973328 
	C112.838882,282.734497 113.113693,281.109741 114.074402,280.329041 
	C116.975754,277.971252 120.143509,275.941284 123.713242,273.427277 
	C106.806129,260.251617 104.366730,243.912582 112.688263,225.163498 
	C113.064140,225.058228 113.224724,225.205093 113.156937,225.606659 
	C110.989334,230.970337 113.308708,236.145187 111.496590,241.631393 
	C109.245865,248.445541 112.339241,255.944138 117.625893,261.919464 
	C118.869408,261.324951 119.997902,260.785431 120.550888,260.521057 
	C121.449249,262.173401 122.220413,263.591827 122.993378,265.384430 
	C123.164543,267.624664 122.750542,270.270721 126.323822,267.983643 
	C127.426224,267.641479 128.210770,267.326019 128.959106,267.346771 
	C128.111771,268.840515 127.300652,269.998077 125.857590,272.057495 
	C128.363358,273.419006 130.669189,275.673920 133.067963,275.777557 
	C139.015625,276.034485 145.005737,275.308472 150.978806,274.977356 
	C150.978806,274.977325 151.092056,275.118042 150.932129,275.496155 
	C143.366470,277.250031 135.894272,278.348999 128.579834,280.105103 
	C124.176704,281.162231 120.019188,283.242401 115.751297,284.862854 
z"/>
<path fill="#AA5C59" opacity="1.000000" stroke="none" 
	d="
M334.044067,229.587814 
	C334.704956,229.645096 334.995483,229.847015 335.296417,230.244110 
	C328.403473,232.133347 321.564026,234.173019 314.586121,235.464478 
	C274.365662,242.908432 235.200012,254.502686 195.844589,265.358887 
	C191.956909,266.431305 188.046463,267.421173 184.146576,268.449310 
	C183.885651,268.072662 183.624710,267.695984 183.363770,267.319305 
	C184.614395,265.502960 185.865005,263.686646 187.446198,261.833679 
	C187.548035,263.019318 187.319290,264.241547 186.960678,266.157654 
	C197.222565,263.295441 206.902283,260.509888 216.629547,257.901733 
	C232.993011,253.514191 249.310394,248.919022 265.786194,244.994965 
	C288.347290,239.621597 311.038361,234.793976 334.044067,229.587814 
z"/>
<path fill="#E80C0D" opacity="1.000000" stroke="none" 
	d="
M164.857925,213.248047 
	C162.331772,217.975586 159.690887,222.599777 156.611877,226.911072 
	C154.337921,230.095078 151.492783,232.871155 148.304840,235.810089 
	C147.780762,234.348724 147.298080,232.466873 148.027985,231.543457 
	C150.551590,228.350784 153.259064,225.213226 156.342056,222.575348 
	C160.345123,219.150208 160.792496,216.773178 155.265121,214.925827 
	C155.094757,214.868881 155.087936,214.322678 155.307648,213.966034 
	C155.878998,213.272308 156.147568,212.617126 156.416122,211.961945 
	C156.024582,211.868622 155.633026,211.775314 155.241486,211.681992 
	C155.159363,212.453033 155.077240,213.224075 154.646393,213.931946 
	C153.749161,212.330139 153.200623,210.791489 152.551575,208.970886 
	C145.068588,208.970886 137.371338,208.970886 129.644104,208.970886 
	C129.139969,211.276703 128.767151,212.981812 128.394348,214.686920 
	C128.050308,214.359390 127.706245,214.031860 127.362198,213.704330 
	C124.660126,215.851440 121.941483,217.978119 119.261368,220.152298 
	C117.223740,221.805237 115.235130,223.518600 113.224716,225.205078 
	C113.224724,225.205093 113.064140,225.058228 112.983566,224.985107 
	C117.304359,213.950470 128.634399,206.141129 140.166077,205.780121 
	C147.400757,205.553635 154.507111,205.567413 160.799850,209.826355 
	C162.151047,210.740845 163.308533,211.941589 164.857925,213.248047 
z"/>
<path fill="#EB0407" opacity="1.000000" stroke="none" 
	d="
M288.909821,150.022614 
	C282.361023,140.569977 273.317596,138.524811 262.625000,140.989349 
	C255.625153,142.602737 248.564987,143.954422 241.082153,145.311554 
	C239.639969,144.257660 238.647491,143.315552 237.281372,141.895660 
	C235.578232,139.958191 234.248703,138.498505 232.919174,137.038834 
	C234.374664,137.546066 235.856110,137.989929 237.280380,138.573380 
	C240.504608,139.894150 243.700668,141.283737 248.135376,143.166306 
	C247.184875,140.632690 246.872101,139.798965 246.428665,138.616989 
	C247.433304,138.216583 248.432983,137.501999 249.459305,137.461395 
	C255.284698,137.230957 261.123413,136.935608 266.943665,137.114609 
	C271.027618,137.240219 275.128723,137.890610 279.144684,138.693893 
	C281.195129,139.104019 283.271973,141.323822 283.596558,137.744690 
	C285.842804,140.815674 288.220001,143.499771 289.907471,146.563736 
	C291.112762,148.752197 291.392242,151.450562 291.730286,154.116455 
	C291.148529,154.161484 290.998657,153.955246 290.920166,153.144714 
	C290.246124,151.738617 289.577972,150.880615 288.909821,150.022614 
z"/>
<path fill="#E10407" opacity="1.000000" stroke="none" 
	d="
M248.411133,215.121582 
	C252.954025,213.964111 257.173706,212.784683 261.469421,212.049271 
	C271.770294,210.285782 281.947418,208.251999 290.158447,201.124680 
	C292.000946,199.525375 293.475311,197.502029 295.437683,195.519547 
	C295.837067,196.600479 295.917908,197.835770 295.999390,199.535522 
	C296.000000,200.000000 295.990936,200.011902 295.990936,200.011902 
	C295.304413,200.600708 294.530975,201.114471 293.946472,201.791397 
	C291.478180,204.649979 289.828339,208.090195 285.006866,208.357452 
	C281.915497,208.528839 279.044739,211.217911 275.884888,211.910843 
	C268.542145,213.521027 261.081909,214.592667 253.674500,215.911819 
	C251.613449,216.278854 249.570602,216.748093 247.217773,217.027740 
	C247.318253,216.357193 247.720352,215.829346 248.411133,215.121582 
z"/>
<path fill="#AB5F5E" opacity="1.000000" stroke="none" 
	d="
M116.155968,284.918640 
	C120.019188,283.242401 124.176704,281.162231 128.579834,280.105103 
	C135.894272,278.348999 143.366470,277.250031 150.988434,275.566772 
	C153.226791,274.821167 155.248932,274.383026 157.663208,274.007690 
	C154.201645,275.631409 150.468506,277.695038 146.470428,278.653992 
	C136.565033,281.029877 126.538506,282.900726 116.155968,284.918640 
z"/>
<path fill="#AA5C59" opacity="1.000000" stroke="none" 
	d="
M337.186768,228.732407 
	C348.407135,224.960098 359.539276,221.390213 370.652527,217.762466 
	C372.218414,217.251312 373.691986,216.457321 375.585571,215.861359 
	C371.106293,218.359665 366.425049,221.275970 361.352417,223.109375 
	C353.554199,225.927856 345.487152,228.002563 337.174927,230.274689 
	C336.907928,229.743134 337.000183,229.329773 337.186768,228.732407 
z"/>
<path fill="#C7292B" opacity="1.000000" stroke="none" 
	d="
M91.595161,23.173161 
	C96.633919,27.084923 101.749168,31.302168 106.810249,35.864685 
	C101.727936,31.966187 96.699791,27.722416 91.595161,23.173161 
z"/>
<path fill="#C7292B" opacity="1.000000" stroke="none" 
	d="
M199.487808,112.521179 
	C204.591873,116.191986 209.805023,120.206512 215.014038,124.566353 
	C209.872208,120.896080 204.734558,116.880486 199.487808,112.521179 
z"/>
<path fill="#C7292B" opacity="1.000000" stroke="none" 
	d="
M148.809296,71.621452 
	C154.073868,75.391525 159.373047,79.493958 164.687592,83.945457 
	C159.416611,80.180954 154.130264,76.067383 148.809296,71.621452 
z"/>
<path fill="#C7292B" opacity="1.000000" stroke="none" 
	d="
M125.800301,52.720200 
	C129.720062,55.482342 133.694702,58.565716 137.662445,62.004936 
	C133.722107,59.254333 129.788635,56.147884 125.800301,52.720200 
z"/>
<path fill="#C7292B" opacity="1.000000" stroke="none" 
	d="
M215.198105,125.297592 
	C219.728333,128.410950 224.363098,131.839142 228.991562,135.613953 
	C224.424393,132.511169 219.863510,129.061798 215.198105,125.297592 
z"/>
<path fill="#C7292B" opacity="1.000000" stroke="none" 
	d="
M106.832443,36.582302 
	C110.877151,39.560150 114.953751,42.870327 119.032272,46.521881 
	C114.977585,43.547054 110.920952,40.230839 106.832443,36.582302 
z"/>
<path fill="#C7292B" opacity="1.000000" stroke="none" 
	d="
M164.812744,84.679054 
	C168.181686,86.958160 171.602371,89.560555 175.032150,92.504089 
	C171.648987,90.230934 168.256729,87.616646 164.812744,84.679054 
z"/>
<path fill="#C7292B" opacity="1.000000" stroke="none" 
	d="
M180.830536,97.605804 
	C184.093002,99.709412 187.399307,102.142456 190.734863,104.920891 
	C187.467545,102.822609 184.170944,100.378929 180.830536,97.605804 
z"/>
<path fill="#C7292B" opacity="1.000000" stroke="none" 
	d="
M137.808029,62.724869 
	C140.110428,64.089584 142.503403,65.764229 144.868988,67.793335 
	C142.527283,66.443459 140.212936,64.739120 137.808029,62.724869 
z"/>
<path fill="#AA5C59" opacity="1.000000" stroke="none" 
	d="
M381.187592,212.763657 
	C383.057587,210.568893 385.267334,208.365479 387.822571,206.145538 
	C385.954468,208.337677 383.740875,210.546341 381.187592,212.763657 
z"/>
<path fill="#C7292B" opacity="1.000000" stroke="none" 
	d="
M232.585205,136.985458 
	C234.248703,138.498505 235.578232,139.958191 237.017883,141.733994 
	C234.497101,140.247925 231.866165,138.445740 229.140747,136.326477 
	C230.114609,136.316971 231.182922,136.624527 232.585205,136.985458 
z"/>
<path fill="#C7292B" opacity="1.000000" stroke="none" 
	d="
M119.239418,47.270916 
	C121.312943,48.512959 123.481468,50.069862 125.654846,51.971825 
	C123.551270,50.739845 121.442848,49.162811 119.239418,47.270916 
z"/>
<path fill="#C7292B" opacity="1.000000" stroke="none" 
	d="
M175.261627,93.259384 
	C177.013031,94.152298 178.860764,95.359093 180.742813,96.909470 
	C178.970749,96.026451 177.164368,94.799858 175.261627,93.259384 
z"/>
<path fill="#AA5C59" opacity="1.000000" stroke="none" 
	d="
M191.610657,256.955475 
	C190.778595,258.523651 189.605530,260.106232 188.100037,261.756897 
	C188.934982,260.206573 190.102325,258.588226 191.610657,256.955475 
z"/>
<path fill="#C7292B" opacity="1.000000" stroke="none" 
	d="
M190.800995,105.617477 
	C192.185928,106.252876 193.596939,107.213486 195.017471,108.521301 
	C193.627014,107.893234 192.227020,106.917969 190.800995,105.617477 
z"/>
<path fill="#AA5C59" opacity="1.000000" stroke="none" 
	d="
M391.353912,202.319321 
	C391.411285,201.027985 391.796204,199.600830 392.346558,197.855804 
	C392.849579,197.609085 393.187195,197.680237 393.651550,197.892731 
	C393.079376,199.417206 392.380432,200.800354 391.353912,202.319321 
z"/>
<path fill="#AA5C59" opacity="1.000000" stroke="none" 
	d="
M200.785492,248.931946 
	C199.875580,250.121979 198.627441,251.394775 197.028198,252.662933 
	C197.933823,251.443756 199.190552,250.229233 200.785492,248.931946 
z"/>
<path fill="#AA5C59" opacity="1.000000" stroke="none" 
	d="
M196.323608,252.670395 
	C195.647217,253.748398 194.631760,254.830673 193.279556,255.936859 
	C193.956711,254.865402 194.970627,253.770035 196.323608,252.670395 
z"/>
<path fill="#C7292B" opacity="1.000000" stroke="none" 
	d="
M144.922256,68.490753 
	C146.148849,68.966591 147.427689,69.769775 148.736389,70.919113 
	C147.502350,70.449547 146.238419,69.633820 144.922256,68.490753 
z"/>
<path fill="#AA5C59" opacity="1.000000" stroke="none" 
	d="
M376.294617,215.966171 
	C377.337189,214.862167 378.721527,213.793640 380.449341,212.770691 
	C379.407349,213.878052 378.021851,214.939850 376.294617,215.966171 
z"/>
<path fill="#C7292B" opacity="1.000000" stroke="none" 
	d="
M195.258026,109.262024 
	C196.452744,109.753815 197.758484,110.550705 199.131409,111.707542 
	C197.922073,111.234039 196.645554,110.400581 195.258026,109.262024 
z"/>
<path fill="#AA5C59" opacity="1.000000" stroke="none" 
	d="
M388.475159,206.099350 
	C388.837189,205.060486 389.533020,203.959824 390.570618,202.752594 
	C390.211273,203.776520 389.510132,204.907043 388.475159,206.099350 
z"/>
<path fill="#AA5C59" opacity="1.000000" stroke="none" 
	d="
M192.677582,255.970367 
	C192.813721,256.274536 192.671432,256.605652 192.236359,256.942383 
	C192.095428,256.631134 192.247299,256.314209 192.677582,255.970367 
z"/>
<path fill="#E10407" opacity="1.000000" stroke="none" 
	d="
M296.449463,192.992020 
	C296.377960,187.645203 296.683563,182.286865 296.998871,176.465012 
	C297.490601,176.106049 298.126434,176.049606 298.430634,176.340240 
	C301.244446,179.028564 300.098724,190.604004 296.449463,192.992020 
z"/>
<path fill="#E10407" opacity="1.000000" stroke="none" 
	d="
M294.847290,163.009125 
	C293.960999,161.716751 293.408173,160.241257 292.824829,158.420990 
	C295.519470,158.689896 296.457550,160.201523 294.847290,163.009125 
z"/>
<path fill="#E10407" opacity="1.000000" stroke="none" 
	d="
M296.887360,171.995911 
	C296.174042,170.661606 295.774445,169.153992 295.484192,167.323761 
	C296.129425,168.608307 296.665253,170.215454 296.887360,171.995911 
z"/>
<path fill="#EB0407" opacity="1.000000" stroke="none" 
	d="
M288.390259,140.464188 
	C287.941833,140.348419 287.666931,140.065994 287.413269,139.765625 
	C287.406799,139.757965 287.633392,139.553513 287.751282,139.440842 
	C288.023041,139.725616 288.294800,140.010391 288.390259,140.464188 
z"/>
<path fill="#E10407" opacity="1.000000" stroke="none" 
	d="
M296.006042,199.995361 
	C296.128845,200.134674 296.245667,200.278656 296.362457,200.422623 
	C296.277374,200.374969 296.192322,200.327316 296.049072,200.145782 
	C295.990936,200.011902 296.000000,200.000000 296.006042,199.995361 
z"/>
<path fill="#E90102" opacity="1.000000" stroke="none" 
	d="
M155.004883,214.004578 
	C155.087936,214.322678 155.094757,214.868881 155.265121,214.925827 
	C160.792496,216.773178 160.345123,219.150208 156.342056,222.575348 
	C153.259064,225.213226 150.551590,228.350784 148.027985,231.543457 
	C147.298080,232.466873 147.780762,234.348724 148.010712,235.965607 
	C148.211884,236.455917 148.039108,236.726685 147.205383,237.045105 
	C145.619125,238.545242 144.623062,239.952591 143.626984,241.359955 
	C143.626999,241.359955 143.518661,241.521851 143.081467,241.392548 
	C141.957428,242.298340 141.270584,243.333405 140.583740,244.368484 
	C140.583740,244.368484 140.488831,244.476379 140.096466,244.362671 
	C137.595001,244.438141 136.353363,245.033356 138.349182,247.143799 
	C137.810394,247.707321 137.271606,248.270828 136.084412,248.964722 
	C134.351303,250.457809 133.266617,251.820511 132.181915,253.183228 
	C132.181915,253.183228 132.001221,253.005493 131.717361,253.042191 
	C129.963196,254.391556 128.492889,255.704224 127.013580,257.008667 
	C127.004585,257.000488 127.010353,257.021729 126.687340,257.058472 
	C125.918404,257.741058 125.472488,258.386963 125.022102,259.399170 
	C125.019135,260.498230 125.020630,261.230957 124.893005,262.243378 
	C124.173111,263.352142 123.582344,264.181183 122.991577,265.010223 
	C122.220413,263.591827 121.449249,262.173401 120.550888,260.521057 
	C119.997902,260.785431 118.869408,261.324951 117.625893,261.919464 
	C112.339241,255.944138 109.245865,248.445541 111.496590,241.631393 
	C113.308708,236.145187 110.989334,230.970337 113.156937,225.606659 
	C115.235130,223.518600 117.223740,221.805237 119.261368,220.152298 
	C121.941483,217.978119 124.660126,215.851440 127.362198,213.704330 
	C127.706245,214.031860 128.050308,214.359390 128.394348,214.686920 
	C128.767151,212.981812 129.139969,211.276703 129.644104,208.970886 
	C137.371338,208.970886 145.068588,208.970886 152.551575,208.970886 
	C153.200623,210.791489 153.749161,212.330139 154.648834,213.934387 
	C155.000000,214.000000 155.004883,214.004578 155.004883,214.004578 
M128.516144,216.416290 
	C128.516144,216.416290 128.578751,216.522751 128.516144,216.416290 
z"/>
<path fill="#CC0508" opacity="1.000000" stroke="none" 
	d="
M125.022133,261.963654 
	C125.020630,261.230957 125.019135,260.498230 125.282738,259.270691 
	C126.035355,258.191132 126.522858,257.606445 127.010361,257.021729 
	C127.010353,257.021729 127.004585,257.000488 127.325653,256.999603 
	C128.063248,256.984009 128.479767,256.969269 128.896301,256.954529 
	C128.682159,258.537781 126.606415,260.982483 130.806488,260.802185 
	C129.611053,261.319550 128.202408,261.656311 126.157341,261.986328 
	C125.520912,261.979614 125.022133,261.963654 125.022133,261.963654 
z"/>
<path fill="#EA0101" opacity="1.000000" stroke="none" 
	d="
M170.103485,232.688873 
	C173.550323,234.538040 173.550323,234.538040 170.557312,238.293076 
	C170.313202,236.312088 170.150543,234.992142 169.979889,233.263977 
	C169.971878,232.855728 170.038055,232.723404 170.103485,232.688873 
z"/>
<path fill="#E80C0D" opacity="1.000000" stroke="none" 
	d="
M129.192123,256.816528 
	C128.479767,256.969269 128.063248,256.984009 127.334648,257.007812 
	C128.492889,255.704224 129.963196,254.391556 131.807465,253.129807 
	C131.283615,254.346664 130.385788,255.512604 129.192123,256.816528 
z"/>
<path fill="#E80C0D" opacity="1.000000" stroke="none" 
	d="
M132.495422,253.067352 
	C133.266617,251.820511 134.351303,250.457809 135.816071,249.087387 
	C135.067062,250.370270 133.938004,251.660873 132.495422,253.067352 
z"/>
<path fill="#E80C0D" opacity="1.000000" stroke="none" 
	d="
M143.930511,241.297104 
	C144.623062,239.952591 145.619125,238.545242 146.984070,237.144943 
	C146.313293,238.512741 145.273651,239.873505 143.930511,241.297104 
z"/>
<path fill="#E80C0D" opacity="1.000000" stroke="none" 
	d="
M138.608978,247.006042 
	C136.353363,245.033356 137.595001,244.438141 140.052155,244.419220 
	C139.889725,245.349075 139.379242,246.108658 138.608978,247.006042 
z"/>
<path fill="#E80C0D" opacity="1.000000" stroke="none" 
	d="
M140.869659,244.311798 
	C141.270584,243.333405 141.957428,242.298340 143.003723,241.451263 
	C142.627319,242.511200 141.891449,243.383163 140.869659,244.311798 
z"/>
<path fill="#CC0508" opacity="1.000000" stroke="none" 
	d="
M148.722519,257.109619 
	C148.508621,257.694580 147.980255,258.307251 147.111328,258.911377 
	C147.316528,258.314392 147.862274,257.725891 148.722519,257.109619 
z"/>
<path fill="#F9F9F9" opacity="1.000000" stroke="none" 
	d="
M380.801331,155.120178 
	C383.672577,151.643478 385.949707,147.278931 389.539856,144.876633 
	C396.807404,140.013672 405.277191,138.117523 414.102112,137.899933 
	C418.193604,137.799057 421.146179,139.420151 423.368256,142.641922 
	C428.674377,150.335144 431.387878,158.943390 432.149414,168.194031 
	C432.559937,173.180771 430.507141,176.944290 426.005890,179.166901 
	C416.776611,183.724075 406.982880,185.791458 396.265808,185.038589 
	C394.792694,172.715759 390.692413,162.438934 380.801331,155.120178 
z"/>
<path fill="#E30809" opacity="1.000000" stroke="none" 
	d="
M380.465088,155.147446 
	C390.692413,162.438934 394.792694,172.715759 395.836182,184.899689 
	C389.669586,184.978561 383.487762,184.880890 377.350372,184.307495 
	C376.059570,184.186905 374.479553,182.547882 373.806366,181.217194 
	C370.630249,174.939072 374.368988,160.044373 380.465088,155.147446 
z"/>
<path fill="#F9F8F8" opacity="1.000000" stroke="none" 
	d="
M260.515198,199.134735 
	C259.459595,199.884857 258.386566,201.306824 257.351105,201.279968 
	C248.107681,201.040298 238.855042,200.728119 229.648758,199.932465 
	C228.228439,199.809708 226.140182,197.266739 225.866928,195.596588 
	C223.246567,179.580536 233.938766,162.276459 249.398209,157.111359 
	C250.279053,156.817078 251.328018,157.025986 252.779892,157.434326 
	C263.558167,170.238525 265.978699,183.993668 260.515198,199.134735 
z"/>
<path fill="#E40607" opacity="1.000000" stroke="none" 
	d="
M260.660889,199.558411 
	C265.978699,183.993668 263.558167,170.238525 253.175781,157.563400 
	C257.182220,152.937241 270.219879,152.201706 273.985077,156.629639 
	C281.356384,165.298416 284.749512,175.642395 284.040771,186.965271 
	C283.873688,189.634842 281.805176,193.092758 279.552246,194.545227 
	C273.984192,198.135086 267.911346,201.164551 260.660889,199.558411 
z"/>
<path fill="#E10407" opacity="1.000000" stroke="none" 
	d="
M288.956207,150.359100 
	C289.577972,150.880615 290.246124,151.738617 290.895691,152.950867 
	C290.252258,152.435287 289.627441,151.565430 288.956207,150.359100 
z"/>
<path fill="#EA0101" opacity="1.000000" stroke="none" 
	d="
M151.046829,274.632751 
	C145.005737,275.308472 139.015625,276.034485 133.067963,275.777557 
	C130.669189,275.673920 128.363358,273.419006 125.857590,272.057495 
	C127.300652,269.998077 128.111771,268.840515 128.960785,266.969940 
	C128.998718,265.503784 128.998749,264.750671 128.998779,263.997559 
	C134.721786,263.997559 140.444778,263.997559 146.354355,263.997559 
	C151.603851,258.173157 157.487198,252.195145 162.680527,245.668137 
	C165.590332,242.011063 168.334030,239.738922 174.306198,241.875488 
	C173.369370,246.778839 172.803528,252.123962 171.275330,257.178101 
	C169.008408,264.675415 162.411316,267.919312 155.993637,271.175720 
	C154.281723,272.044373 152.736572,273.241730 151.046829,274.632751 
M158.357101,254.302567 
	C159.065231,254.648666 159.773346,254.994781 160.481461,255.340897 
	C160.569229,254.906052 160.657013,254.471191 160.744781,254.036346 
	C159.983994,253.911499 159.223206,253.786652 158.357101,254.302567 
z"/>
<path fill="#EA0101" opacity="1.000000" stroke="none" 
	d="
M124.893005,262.243378 
	C125.022133,261.963654 125.520912,261.979614 125.770599,261.985535 
	C126.185097,262.547211 126.349907,263.102997 126.725266,264.174286 
	C126.625877,265.796661 126.315918,266.903503 126.005966,268.010345 
	C122.750542,270.270721 123.164543,267.624664 122.993385,265.384430 
	C123.582344,264.181183 124.173111,263.352142 124.893005,262.243378 
z"/>
<path fill="#E90102" opacity="1.000000" stroke="none" 
	d="
M126.323822,267.983643 
	C126.315918,266.903503 126.625877,265.796661 126.968674,264.343689 
	C127.445366,263.996674 127.889198,263.995789 128.665909,263.996216 
	C128.998749,264.750671 128.998718,265.503784 128.997009,266.633728 
	C128.210770,267.326019 127.426224,267.641479 126.323822,267.983643 
z"/>
<path fill="#E90102" opacity="1.000000" stroke="none" 
	d="
M154.997559,213.997559 
	C155.077240,213.224075 155.159363,212.453033 155.241486,211.681992 
	C155.633026,211.775314 156.024582,211.868622 156.416122,211.961945 
	C156.147568,212.617126 155.878998,213.272308 155.307648,213.966034 
	C155.004883,214.004578 155.000000,214.000000 154.997559,213.997559 
z"/>
<path fill="#E80C0D" opacity="1.000000" stroke="none" 
	d="
M126.687347,257.058472 
	C126.522858,257.606445 126.035355,258.191132 125.287209,258.904327 
	C125.472488,258.386963 125.918404,257.741058 126.687347,257.058472 
z"/>
<path fill="#E80C0D" opacity="1.000000" stroke="none" 
	d="
M128.547455,216.469513 
	C128.578751,216.522751 128.516144,216.416290 128.547455,216.469513 
z"/>
<path fill="#E80C0D" opacity="1.000000" stroke="none" 
	d="
M158.409760,253.982193 
	C159.223206,253.786652 159.983994,253.911499 160.744781,254.036346 
	C160.657013,254.471191 160.569229,254.906052 160.481461,255.340881 
	C159.773346,254.994781 159.065231,254.648666 158.409760,253.982193 
z"/>
</svg>